# xmcd CD database file
#
# Track frame offsets:
#	150
#	7370
#	15625
#	23030
#	31695
#	42725
#	51238
#	59715
#	68795
#	81505
#	88808
#	97388
#	106240
#	115098
#	122140
#	129333
#	132060
#	139728
#	148490
#	156498
#	165745
#	177400
#	186480
#	195485
#	205073
#	218073
#	225840
#	234915
#	244233
#	253765
#	261463
#	269415
#	275703
#	283725
#	292770
#	296825
#	297885
#	299000
#	299943
#	300703
#	302140
#	303020
#	303818
#	304535
#
# Disc length: 4074 seconds
#
# Revision: 0
# Processed by: cddbd v1.5.2PL0 Copyright (c) Steve Scherf et al.
# Submitted via: CDex 1.76
#
DISCID=bc0fe82c
DTITLE=ABRSM - ABRSM Jazz Trumpet Grade 5
DYEAR=2003
DGENRE=Jazz
TTITLE0=Five Spot After Dark
TTITLE1=Keepin' In The Groove
TTITLE2=Mandela
TTITLE3=Sugar
TTITLE4=Tin Roof Blues
TTITLE5=A Night In Tunisia
TTITLE6=Charleston
TTITLE7=Little Jazz
TTITLE8=My Ship
TTITLE9=Nutty
TTITLE10=74 Miles Away
TTITLE11=For Jan
TTITLE12=Odessa
TTITLE13=Sugar Loaf Mountain
TTITLE14=The Samba Dancer
TTITLE15=Tuning Note Concert Bb
TTITLE16=Five Spot After Dark (-1)
TTITLE17=Keepin' In The Groove (-1)
TTITLE18=Mandela (-1)
TTITLE19=Sugar (-1)
TTITLE20=Tin Roof Blues (-1)
TTITLE21=A Night In Tunisia (-1)
TTITLE22=Charleston (-1)
TTITLE23=Little Jazz (-1)
TTITLE24=My Ship (-1)
TTITLE25=Nutty (-1)
TTITLE26=74 Miles Away (-1)
TTITLE27=For Jan (-1)
TTITLE28=Odessa (-1)
TTITLE29=Sugar Loaf Mountain (-1)
TTITLE30=The Samba Dancer (-1)
TTITLE31=Aural Test A #1
TTITLE32=Aural Test B #1
TTITLE33=Quick Study #5 (by ear)
TTITLE34=Quick Study #5 (by sight)
TTITLE35=Mixolydian on A
TTITLE36=Lydian on C
TTITLE37=Minor Pentatonic on G
TTITLE38=Blues Scale on B flat
TTITLE39=Chromatic Scale on C
TTITLE40=G Major Arpeggio
TTITLE41=C# Minor Arpeggio
TTITLE42=F Major 9 Arpeggio
TTITLE43=Diminished 7th on C
EXTD=YEAR: 2003
EXTT0=
EXTT1=
EXTT2=
EXTT3=
EXTT4=
EXTT5=
EXTT6=
EXTT7=
EXTT8=
EXTT9=
EXTT10=
EXTT11=
EXTT12=
EXTT13=
EXTT14=
EXTT15=
EXTT16=
EXTT17=
EXTT18=
EXTT19=
EXTT20=
EXTT21=
EXTT22=
EXTT23=
EXTT24=
EXTT25=
EXTT26=
EXTT27=
EXTT28=
EXTT29=
EXTT30=
EXTT31=
EXTT32=
EXTT33=
EXTT34=
EXTT35=
EXTT36=
EXTT37=
EXTT38=
EXTT39=
EXTT40=
EXTT41=
EXTT42=
EXTT43=
PLAYORDER=
